Coordinates
version=1
nRows=28
nColumns=23
inDegrees=yes

Units are S.I. units (second, meters, Newtons, ...)
If the header above contains a line with 'inDegrees', this indicates whether rotational values are in degrees (yes) or radians (no).

endheader
time	pelvis_tilt	pelvis_list	pelvis_rotation	pelvis_tx	pelvis_ty	pelvis_tz	hip_flexion_r	hip_adduction_r	hip_rotation_r	knee_angle_r	knee_angle_r_beta	ankle_angle_r	subtalar_angle_r	mtp_angle_r	hip_flexion_l	hip_adduction_l	hip_rotation_l	knee_angle_l	knee_angle_l_beta	ankle_angle_l	subtalar_angle_l	mtp_angle_l
     15.00000000	     -7.80094781	     10.29083327	      9.39100179	      2.20320103	      0.99862781	      0.95811393	     18.51944795	    -15.03424496	     -3.40688957	    101.95748112	      1.77949374	     -5.79339996	    -26.12543875	      0.00000000	     27.73645012	     16.55460474	      4.83434977	     44.86026983	      0.78295941	     21.32803128	     -6.03578116	      0.00000000
     15.00666667	     -7.90612548	     10.17402444	      8.78276561	      2.20213475	      0.99839444	      0.95900876	     20.71087958	    -14.68226470	     -2.14181040	    103.07458789	      1.79899093	     -4.99203456	    -25.83282427	      0.00000000	     26.72128895	     16.13963547	      4.70293922	     44.95324258	      0.78458209	     22.52180099	     -5.81252811	      0.00000000
     15.01333333	     -8.11090986	      9.98448103	      8.17894955	      2.20128399	      0.99864852	      0.95986495	     22.95910225	    -14.22311387	     -0.98393106	    103.88592601	      1.81315146	     -4.31830285	    -25.55424766	      0.00000000	     25.69386891	     15.66182901	      4.57353515	     44.83413396	      0.78250325	     23.54714534	     -5.42253803	      0.00000000
     15.02000000	     -8.00608942	      9.65409247	      7.64297221	      2.20081024	      1.00017677	      0.96061759	     24.70650119	    -13.61023763	     -0.18639685	    104.27365140	      1.81991854	     -3.67465586	    -25.33071875	      0.00000000	     24.13054943	     15.08504135	      4.73341924	     44.36329084	      0.77428549	     24.26818118	     -5.37401970	      0.00000000
     15.02666667	     -8.13677405	      9.26886495	      7.47465781	      2.20085551	      1.00222584	      0.96069946	     26.44723673	    -13.22176663	      0.09731516	    104.27728024	      1.81998188	     -3.26797550	    -25.23153667	      0.00000000	     22.61611480	     14.61477914	      5.16603770	     43.61245859	      0.76118100	     24.63046925	     -5.13874545	      0.00000000
     15.03333333	     -8.02061699	      8.81635738	      6.56530995	      2.20070295	      1.00488134	      0.96215825	     28.15894158	    -12.20216405	      0.97983829	    104.11985328	      1.81723426	     -2.49040731	    -24.89216972	      0.00000000	     20.94072798	     13.68563574	      4.80850380	     42.78226832	      0.74669144	     24.89641065	     -4.95372900	      0.00000000
     15.04000000	     -7.87310591	      8.25050574	      5.94356945	      2.20116716	      1.00833392	      0.96322787	     29.53361948	    -11.25779798	      1.33563552	    103.55064311	      1.80729966	     -1.97176450	    -24.75292740	      0.00000000	     19.08127762	     12.66893488	      4.48042242	     41.75212059	      0.72871197	     24.89027468	     -4.15958655	      0.00000000
     15.04666667	     -8.16942484	      7.77828747	      5.62266658	      2.20166901	      1.01164362	      0.96374101	     31.23371171	    -10.63431200	      1.44499354	    102.78299828	      1.79390174	     -1.41805731	    -24.67151260	      0.00000000	     17.61174015	     12.05694090	      4.72471162	     40.60772411	      0.70873849	     24.63731646	     -3.77388331	      0.00000000
     15.05333333	     -8.48621873	      7.29497540	      5.23932733	      2.20245118	      1.01542617	      0.96438584	     32.84613234	     -9.97616741	      1.48062701	    101.74921718	      1.77585885	     -0.80578999	    -24.54875852	      0.00000000	     16.13740265	     11.33361241	      4.67047999	     39.33616415	      0.68654558	     24.08998330	     -3.46018482	      0.00000000
     15.06000000	     -6.38588124	      5.85178917	      4.54984447	      2.20477698	      1.02364535	      0.96603666	     31.30907955	     -7.99465869	      0.70805277	     99.74993558	      1.74096480	     -0.25988007	    -24.62985815	      0.00000000	     11.95886085	      9.01077025	      3.90066264	     37.72660207	      0.65845342	     22.77754819	     -2.25378069	      0.00000000
     15.06666667	     -6.69179322	      5.34214405	      4.06002262	      2.20591340	      1.02811835	      0.96700366	     32.68136474	     -7.24905434	      0.65125756	     98.25465329	      1.71486721	      0.48432294	    -24.44209242	      0.00000000	     10.48232116	      8.19863690	      3.45167770	     36.31588220	      0.63383172	     21.15057278	     -1.95921883	      0.00000000
     15.07333333	     -5.33063144	      4.19313376	      3.77196213	      2.20834073	      1.03578548	      0.96781606	     31.70570853	     -5.93496384	     -0.25161526	     95.97297746	      1.67504445	      1.09815757	    -24.43343230	      0.00000000	      7.05248349	      6.58682660	      3.23956931	     34.56553909	      0.60328246	     19.32546663	     -1.56766603	      0.00000000
     15.08000000	     -4.82988248	      3.41822201	      3.41953231	      2.21037906	      1.04212370	      0.96866450	     31.74425258	     -5.00886213	     -0.80022801	     93.78360662	      1.63683272	      1.82929632	    -24.25409512	      0.00000000	      4.64776903	      5.46807560	      2.80718013	     32.91700791	      0.57451017	     17.03602635	     -1.38840595	      0.00000000
     15.08666667	     -4.34757713	      2.59016507	      3.17157303	      2.21259120	      1.04858590	      0.96942318	     31.65228512	     -4.09311100	     -1.49901708	     91.37603286	      1.59481263	      2.56832986	    -24.06814946	      0.00000000	      2.32008847	      4.31689809	      2.39126973	     31.30268003	      0.54633483	     14.44054152	     -1.26870889	      0.00000000
     15.09333333	     -3.98489384	      1.89717551	      2.91221545	      2.21488539	      1.05489696	      0.97013379	     31.60366312	     -3.34188518	     -2.14250106	     88.84193747	      1.55058432	      3.29564654	    -23.79310493	      0.00000000	      0.15515447	      3.35508859	      1.93152569	     29.68723461	      0.51813999	     11.54328415	     -1.25698943	      0.00000000
     15.10000000	     -3.59177322	      1.14613006	      2.78034594	      2.21735211	      1.06128593	      0.97077023	     31.36845715	     -2.60323926	     -2.95691098	     86.09877879	      1.50270717	      3.97040681	    -23.44804887	      0.00000000	     -1.96554487	      2.33972204	      1.53460571	     28.13849590	      0.49110940	      8.42206896	     -1.34764555	      0.00000000
     15.10666667	     -3.39125332	      0.57001244	      2.60492369	      2.21977678	      1.06727731	      0.97143393	     31.29406653	     -2.03554325	     -3.65774508	     83.28294255	      1.45356156	      4.64885629	    -23.02159515	      0.00000000	     -3.80010410	      1.54559267	      1.07294359	     26.67778435	      0.46561517	      5.15652891	     -1.43272615	      0.00000000
     15.11333333	     -3.25648137	      0.04358273	      2.47711201	      2.22226713	      1.07305238	      0.97204468	     31.18514801	     -1.55835375	     -4.40147756	     80.33295325	      1.40207453	      5.30229303	    -22.51547761	      0.00000000	     -5.47260459	      0.82178283	      0.64215061	     25.33337918	      0.44215088	      1.79799993	     -1.56453882	      0.00000000
     15.12000000	     -3.21171954	     -0.38282565	      2.35160920	      2.22471526	      1.07849809	      0.97265017	     31.10110328	     -1.19702044	     -5.13138577	     77.28568550	      1.34888968	      5.94780633	    -21.89367899	      0.00000000	     -6.93906392	      0.22199931	      0.21396527	     24.14705790	      0.42144567	     -1.55591278	     -1.71500627	      0.00000000
     15.12666667	     -3.27007085	     -0.70675959	      2.22425998	      2.22714694	      1.08352951	      0.97323521	     31.04982294	     -0.95506895	     -5.84571613	     74.14391209	      1.29405539	      6.56970841	    -21.14584920	      0.00000000	     -8.17692182	     -0.24745566	     -0.19611368	     23.14683943	      0.40398856	     -4.83167609	     -1.87346935	      0.00000000
     15.13333333	     -4.11911302	     -0.63114487	      1.96423652	      2.22901338	      1.08698625	      0.97405104	     31.95024200	     -1.02982892	     -6.20732852	     71.15856600	      1.24195127	      7.10550315	    -20.46954996	      0.00000000	     -8.27079922	     -0.30584007	     -0.93279390	     22.72123542	      0.39656037	     -7.72641829	     -1.51332319	      0.00000000
     15.14000000	     -3.59337290	     -1.09051781	      1.91002186	      2.23167461	      1.09232704	      0.97438584	     30.99480901	     -0.73329110	     -7.23205324	     67.62461032	      1.18027211	      7.88015986	    -19.09440079	      0.00000000	    -10.06086824	     -0.85380936	     -0.99284579	     21.78696436	      0.38025426	    -10.87159450	     -2.34118794	      0.00000000
     15.14666667	     -3.90810766	     -1.13453944	      1.66841422	      2.23373090	      1.09588771	      0.97500691	     31.06447140	     -0.74125037	     -7.86785697	     64.26709107	      1.12167234	      8.54853718	    -17.80639914	      0.00000000	    -10.63759676	     -0.98132235	     -1.49545510	     21.49525869	      0.37516304	    -13.41679432	     -2.58321998	      0.00000000
     15.15333333	     -4.71647037	     -0.92209375	      1.27710126	      2.23530053	      1.09827355	      0.97592494	     31.72441644	     -0.83326363	     -8.13609421	     60.95606283	      1.06388400	      8.98946843	    -16.78614290	      0.00000000	    -10.48005921	     -0.81079944	     -2.10431146	     21.62710655	      0.37746422	    -15.46276688	     -2.55572560	      0.00000000
     15.16000000	     -4.53829731	     -1.11825229	      1.13784523	      2.23737623	      1.10171154	      0.97614201	     31.02353093	     -0.81822609	     -9.22121213	     57.27378362	      0.99961610	      9.99650588	    -14.35876419	      0.00000000	    -11.43960546	     -1.04245931	     -2.27235718	     21.62017960	      0.37734332	    -17.34277602	     -3.35121531	      0.00000000
     15.16666667	     -4.79044577	     -1.14965376	      0.83505190	      2.23900870	      1.10403414	      0.97672433	     30.82275611	     -0.76618304	     -9.97066658	     53.58903054	      0.93530503	     10.65812851	    -12.37428345	      0.00000000	    -11.75113561	     -1.09862685	     -2.67373477	     22.02838067	      0.38446777	    -18.56850166	     -3.78721197	      0.00000000
     15.17333333	     -5.37628977	     -1.05019665	      0.35083868	      2.24025810	      1.10535475	      0.97761046	     31.00865583	     -0.67848997	    -10.45955245	     49.91454752	      0.87117320	     11.27974333	    -10.43506995	      0.00000000	    -11.57211095	     -0.99549896	     -3.23987333	     22.75231415	      0.39710279	    -19.23587957	     -4.30080052	      0.00000000
     15.18000000	     -5.29528417	     -1.22183994	      0.12764030	      2.24184007	      1.10725574	      0.97797311	     30.23738319	     -0.55069235	    -11.65961138	     45.98524520	      0.80259394	     12.09913179	     -7.46875600	      0.00000000	    -12.11659831	     -1.17723925	     -3.45746548	     23.46155634	      0.40948141	    -19.43684416	     -4.60962504	      0.00000000
